# xmcd
#
# Track frame offsets:
#	150
#	15324
#	29376
#	42407
#	56518
#	70188
#	83231
#	95839
#	111015
#	128417
#
# Disc length: 1893 seconds
#
# Revision: 1
# Processed by: cddbd v1.5.2PL0 Copyright (c) Steve Scherf et al.
# Submitted via: audiograbber 1.83.01
#
DISCID=7907630a
DTITLE=Ronnie Mcdowell - Country Boys Heart
DYEAR=1983
DGENRE=Country
TTITLE0=Country Boy's Heart
TTITLE1=That's How Much I Love You
TTITLE2=This Could Take Forever
TTITLE3=You're Gonna Ruin My Bad Reputation
TTITLE4=I Dream Of Women Like You
TTITLE5=You Made A Wanted Man Of Me
TTITLE6=Charlotte's Back In North Carolina
TTITLE7=Your Baby's Not My Baby
TTITLE8=Look Who's Leaving Who
TTITLE9=Let's Cash A Raincheck Tonight
EXTD=
EXTT0=
EXTT1=
EXTT2=
EXTT3=
EXTT4=
EXTT5=
EXTT6=
EXTT7=
EXTT8=
EXTT9=
PLAYORDER=
